<?xml version="1.0" encoding="UTF-8"?>
<svg width="102px" height="100px" viewBox="0 0 102 100" version="1.1" xmlns="http://www.w3.org/2000/svg" xmlns:xlink="http://www.w3.org/1999/xlink">
    <!-- Generator: Sketch 48.2 (47327) - http://www.bohemiancoding.com/sketch -->
    <title>Page 1</title>
    <desc>Created with Sketch.</desc>
    <defs>
        <polygon id="path-1" points="0.8861 0 45.9421 0 45.9421 32.6229 0.8861 32.6229"></polygon>
        <polygon id="path-3" points="0.373 0.3425 55.664 0.3425 55.664 16 0.373 16"></polygon>
        <polygon id="path-5" points="0 0.3968 22.9535 0.3968 22.9535 53.3228 0 53.3228"></polygon>
        <polygon id="path-7" points="0.7137 0.7457 20.221 0.7457 20.221 15.4477 0.7137 15.4477"></polygon>
    </defs>
    <g id="логин" stroke="none" stroke-width="1" fill="none" fill-rule="evenodd" transform="translate(-393.000000, -412.000000)">
        <g id="Page-1" transform="translate(393.000000, 412.000000)">
            <g id="Group-3" transform="translate(51.000000, 0.000000)">
                <mask id="mask-2" fill="white">
                    <use xlink:href="#path-1"></use>
                </mask>
                <g id="Clip-2"></g>
                <path d="M1.1141,0.6119 L2.9991,6.3969 C3.5771,8.1719 4.1591,9.9609 4.7441,11.7569 C17.3551,13.6369 27.9881,21.6339 33.5361,32.6209 L45.9421,32.6229 C39.0911,14.1089 21.5961,0.7599 0.8861,-0.0001 C0.9751,0.2229 1.0521,0.4189 1.1141,0.6119" id="Fill-1" fill="#CFD8DC" mask="url(#mask-2)"></path>
            </g>
            <g id="Group-6" transform="translate(22.000000, 84.000000)">
                <mask id="mask-4" fill="white">
                    <use xlink:href="#path-3"></use>
                </mask>
                <g id="Clip-5"></g>
                <path d="M53.305,5.9415 C51.041,4.2845 48.828,2.6635 46.617,1.0405 L45.673,0.3465 C40.377,3.0795 34.378,4.6315 28.019,4.6315 C21.657,4.6315 15.655,3.0775 10.356,0.3425 C7.028,2.7845 3.701,5.2275 0.373,7.6685 C8.293,12.9305 17.797,16.0005 28.019,16.0005 C38.241,16.0005 47.744,12.9315 55.664,7.6695 L53.305,5.9415 Z" id="Fill-4" fill="#CFD8DC" mask="url(#mask-4)"></path>
            </g>
            <g id="Group-9" transform="translate(0.000000, 36.000000)">
                <mask id="mask-6" fill="white">
                    <use xlink:href="#path-5"></use>
                </mask>
                <g id="Clip-8"></g>
                <path d="M19.2015,53.0548 C19.9645,50.7128 21.4105,46.2758 22.9535,41.5388 C15.8095,34.5218 11.3685,24.7628 11.3685,13.9808 C11.3685,11.7298 11.5725,9.5268 11.9435,7.3808 C11.4675,7.2268 11.0115,7.0038 10.6175,6.7248 C8.2995,5.0868 6.0265,3.4288 3.6205,1.6738 C3.0455,1.2548 2.4565,0.8258 1.8685,0.3968 C0.6515,4.7168 -0.0005,9.2728 -0.0005,13.9808 C-0.0005,29.9458 7.4795,44.1638 19.1265,53.3228 C19.1495,53.2348 19.1715,53.1478 19.2015,53.0548" id="Fill-7" fill="#CFD8DC" mask="url(#mask-6)"></path>
            </g>
            <path d="M18.577,11.0895 C11.65,16.6965 6.246,24.1105 3.096,32.6225 L15.502,32.6225 C17.956,27.7615 21.408,23.4905 25.583,20.0705 L18.577,11.0895 Z" id="Fill-10" fill="#5FA4CE"></path>
            <path d="M24.7498,6.8136 L34.2708,6.7106 L31.8698,15.8856 C35.6818,13.8476 39.8648,12.4166 44.3018,11.7556 C44.8458,10.0846 45.3878,8.4176 45.9268,6.7656 L47.9028,0.6946 C47.9688,0.4916 48.0388,0.2886 48.1258,0.0346 L48.1378,0.0006 C39.6248,0.3156 31.6588,2.7606 24.7498,6.8136" id="Fill-12" fill="#5FA4CE"></path>
            <path d="M65.4056,71.2379 C63.1156,64.1699 60.9066,57.3499 58.6696,50.4429 L75.7036,50.4429 C73.6456,51.9459 71.7316,53.3529 69.8086,54.7469 C68.1536,55.9479 68.1526,55.9409 68.7996,57.9299 C72.2066,68.4039 75.6126,78.8789 79.0156,89.3539 C79.1416,89.7389 79.2436,90.1319 79.4066,90.6909 C76.0686,88.2439 72.8786,85.9119 69.6936,83.5729 C63.3676,78.9289 57.0366,74.2909 50.7326,69.6159 C50.1246,69.1659 49.7486,69.3229 49.2476,69.6919 C39.9156,76.5479 30.5766,83.3969 21.2386,90.2439 C21.1176,90.3329 20.9806,90.3999 20.7056,90.5619 C20.8036,90.1449 20.8476,89.8739 20.9316,89.6169 C24.1346,79.7799 27.3426,69.9449 30.5476,60.1089 C30.9126,58.9869 31.2296,57.8459 31.6466,56.7439 C31.8846,56.1109 31.7176,55.7799 31.1916,55.4079 C29.0306,53.8779 26.9016,52.3029 24.7626,50.7429 C24.6726,50.6779 24.5956,50.5929 24.4076,50.4229 L41.3836,50.4229 C39.1636,57.2689 36.9526,64.0859 34.7416,70.9029 C34.7936,70.9569 34.8446,71.0109 34.8966,71.0659 C35.3666,70.7449 35.8446,70.4379 36.3046,70.1019 C40.6586,66.9239 45.0236,63.7589 49.3476,60.5389 C49.9806,60.0679 50.3516,60.2929 50.8316,60.6449 C55.4336,64.0249 60.0386,67.4009 64.6446,70.7749 C64.7966,70.8859 64.9676,70.9719 65.4056,71.2379" id="Fill-14" fill="#2C83C4"></path>
            <path d="M97.7645,34.442 C94.3235,36.949 91.1285,39.29 87.9105,41.6 C87.6565,41.783 87.2525,41.817 86.9175,41.818 C76.8165,41.829 66.7155,41.821 56.6135,41.841 C55.9895,41.842 55.7455,41.639 55.5565,41.051 C53.8755,35.816 52.1575,30.592 50.4495,25.366 C50.3465,25.051 50.2345,24.739 49.8915,24.434 C48.0065,30.219 46.1195,36.004 44.2215,41.827 L43.1315,41.827 C33.2215,41.827 23.3115,41.837 13.4025,41.803 C12.8185,41.801 12.1455,41.579 11.6675,41.24 C8.5915,39.066 5.5585,36.831 2.2735,34.442 L3.5325,34.442 C14.9445,34.442 26.3565,34.434 37.7685,34.46 C38.5645,34.462 38.9225,34.239 39.1755,33.455 C42.6385,22.715 46.1395,11.987 49.6325,1.257 C49.7305,0.957 49.8355,0.659 50.0005,0.177 C50.1705,0.616 50.2925,0.891 50.3855,1.175 C53.8685,11.875 57.3635,22.571 60.8075,33.283 C61.1095,34.224 61.5335,34.468 62.4835,34.465 C73.8315,34.429 85.1795,34.442 96.5275,34.442 L97.7645,34.442 Z" id="Fill-16" fill="#EB3B24"></path>
            <polygon id="Fill-18" fill="#5FA4CE" points="32.3226 8.2316 15.9526 8.4086 28.1656 24.1156"></polygon>
            <path d="M85.2435,65.8527 C83.2565,70.2417 80.4815,74.2017 77.0865,77.5377 C78.3065,81.2887 79.5275,85.0407 80.7465,88.7917 C80.8015,88.9627 80.8545,89.1407 80.9075,89.3257 C87.8595,83.8607 93.3085,76.5837 96.5875,68.2187 L85.2435,65.8527 Z" id="Fill-20" fill="#E57373"></path>
            <path d="M87.7435,58.3663 L94.7665,52.3253 L98.8285,60.8953 C99.6115,57.3803 100.0385,53.7313 100.0385,49.9803 C100.0385,45.2723 99.3865,40.7173 98.1705,36.3973 L96.7585,37.4273 C94.0745,39.3853 91.5375,41.2343 88.9715,43.0773 C88.7215,43.2573 88.4355,43.3893 88.1135,43.4823 C88.4725,45.5963 88.6705,47.7653 88.6705,49.9803 C88.6705,52.8613 88.3445,55.6643 87.7435,58.3663" id="Fill-22" fill="#E57373"></path>
            <g id="Group-26" transform="translate(81.000000, 54.000000)">
                <mask id="mask-8" fill="white">
                    <use xlink:href="#path-7"></use>
                </mask>
                <g id="Clip-25"></g>
                <polygon id="Fill-24" fill="#E57373" mask="url(#mask-8)" points="13.2537 0.7457 0.7137 11.5297 20.2217 15.4477"></polygon>
            </g>
        </g>
    </g>
</svg>